HIERARCHY
ROOT SpineBase
{
  OFFSET 0.000000 0.000000 0.000000
  CHANNELS 6 Xposition Yposition Zposition Zrotation Xrotation Yrotation
  JOINT SpineMid
  {
    OFFSET 0.000000 37.158734 -0.000000
    CHANNELS 3 Zrotation Xrotation Yrotation
    JOINT SpineShoulder
    {
      OFFSET -0.067076 27.341268 -0.733440
      CHANNELS 3 Zrotation Xrotation Yrotation
      JOINT Neck
      {
        OFFSET -0.078414 8.954428 -0.549729
        CHANNELS 3 Zrotation Xrotation Yrotation
        JOINT Head
        {
          OFFSET -8.955798 10.564079 6.683894
          CHANNELS 3 Zrotation Xrotation Yrotation
          End Site
          {
            OFFSET 0 0 0
          }
        }
      }
      JOINT ShoulderLeft
      {
        OFFSET -7.112189 -1.822464 14.477860
        CHANNELS 3 Zrotation Xrotation Yrotation
        JOINT ElbowLeft
        {
          OFFSET 13.891488 -23.378526 -4.549205
          CHANNELS 3 Zrotation Xrotation Yrotation
          JOINT WristLeft
          {
            OFFSET 7.511976 -26.002356 0.893034
            CHANNELS 3 Zrotation Xrotation Yrotation
            JOINT HandLeft
            {
              OFFSET 2.552283 -8.679072 0.688164
              CHANNELS 3 Zrotation Xrotation Yrotation
              JOINT HandTipLeft
              {
                OFFSET 0.251867 0.152568 -0.992786
                CHANNELS 3 Zrotation Xrotation Yrotation
                End Site
                {
                  OFFSET 0 0 0
                }
              }
              JOINT ThumbLeft
              {
                OFFSET 0.659973 0.320651 -2.323943
                CHANNELS 3 Zrotation Xrotation Yrotation
                End Site
                {
                  OFFSET 0 0 0
                }
              }
            }
          }
        }
      }
      JOINT ShoulderRight
      {
        OFFSET 2.867622 -5.520403 -14.456437
        CHANNELS 3 Zrotation Xrotation Yrotation
        JOINT ElbowRight
        {
          OFFSET -3.958216 -25.061175 -4.358718
          CHANNELS 3 Zrotation Xrotation Yrotation
          JOINT WristRight
          {
            OFFSET -5.556977 -21.208714 2.764203
            CHANNELS 3 Zrotation Xrotation Yrotation
            JOINT HandRight
            {
              OFFSET -0.057910 -7.815540 3.352101
              CHANNELS 3 Zrotation Xrotation Yrotation
              JOINT HandTipRight
              {
                OFFSET -1.184655 -7.791125 2.754320
                CHANNELS 3 Zrotation Xrotation Yrotation
                End Site
                {
                  OFFSET 0 0 0
                }
              }
              JOINT ThumbRight
              {
                OFFSET 5.026006 0.772135 -0.945919
                CHANNELS 3 Zrotation Xrotation Yrotation
                End Site
                {
                  OFFSET 0 0 0
                }
              }
            }
          }
        }
      }
    }
  }
  JOINT HipLeft
  {
    OFFSET -2.724647 -1.238994 0.762325
    CHANNELS 3 Zrotation Xrotation Yrotation
    JOINT KneeLeft
    {
      OFFSET 4.956119 -35.086794 18.047561
      CHANNELS 3 Zrotation Xrotation Yrotation
      JOINT AnkleLeft
      {
        OFFSET 5.492526 -30.839500 2.858157
        CHANNELS 3 Zrotation Xrotation Yrotation
        JOINT FootLeft
        {
          OFFSET -7.916609 3.910569 -1.680704
          CHANNELS 3 Zrotation Xrotation Yrotation
          End Site
          {
            OFFSET 0 0 0
          }
        }
      }
    }
  }
  JOINT HipRight
  {
    OFFSET 1.998242 2.428727 -7.789133
    CHANNELS 3 Zrotation Xrotation Yrotation
    JOINT KneeRight
    {
      OFFSET 3.947682 -29.192704 2.308941
      CHANNELS 3 Zrotation Xrotation Yrotation
      JOINT AnkleRight
      {
        OFFSET 9.274418 -31.672308 4.213439
        CHANNELS 3 Zrotation Xrotation Yrotation
        JOINT FootRight
        {
          OFFSET -2.180001 -7.673483 -3.432915
          CHANNELS 3 Zrotation Xrotation Yrotation
          End Site
          {
            OFFSET 0 0 0
          }
        }
      }
    }
  }
}
MOTION
Frames: 8
Frame Time: 0.033333
30.580652 70.279724 289.009576 -0.000000 -0.000000 61.088550 0.000000 0.000000 -61.088550 -0.000000 0.000000 0.000000 -0.000000 0.000000 0.000000 0.000000 0.000000 0.000000 -0.000000 0.000000 0.000000 -0.000000 0.000000 0.000000 -0.000000 0.000000 0.000000 -0.000000 0.000000 0.000000 0.000000 0.000000 0.000000 0.000000 0.000000 0.000000 -0.000000 0.000000 0.000000 -0.000000 0.000000 0.000000 -0.000000 0.000000 0.000000 -0.000000 0.000000 0.000000 0.000000 0.000000 0.000000 0.000000 0.000000 0.000000 0.000000 0.000000 -61.088550 -0.000000 0.000000 0.000000 -0.000000 0.000000 0.000000 0.000000 0.000000 0.000000 0.000000 0.000000 -61.088550 -0.000000 0.000000 0.000000 -0.000000 0.000000 0.000000 0.000000 0.000000 0.000000
30.630891 70.441007 289.052520 0.080325 -0.036344 60.749183 -0.007540 0.087842 -60.749151 -0.000000 0.000000 0.000000 -0.000000 0.000000 0.000000 0.000000 0.000000 0.000000 -0.000000 0.000000 0.000000 -0.000000 0.000000 0.000000 -0.000000 0.000000 0.000000 -0.000000 0.000000 0.000000 0.000000 0.000000 0.000000 0.000000 0.000000 0.000000 -0.000000 0.000000 0.000000 -0.000000 0.000000 0.000000 -0.000000 0.000000 0.000000 -0.000000 0.000000 0.000000 0.000000 0.000000 0.000000 0.000000 0.000000 0.000000 -0.007540 0.087842 -60.749151 -0.000000 0.000000 0.000000 -5.176742 2.532762 3.354286 0.000000 0.000000 0.000000 -0.007540 0.087842 -60.749151 -0.000000 0.000000 0.000000 2.644339 -2.548368 -0.407009 0.000000 0.000000 0.000000
30.669553 70.562169 289.088311 0.144124 -0.062956 60.530294 -0.016094 0.156449 -60.530193 -0.000000 0.000000 0.000000 -0.000000 0.000000 0.000000 0.000000 0.000000 0.000000 -0.000000 0.000000 0.000000 -0.000000 0.000000 0.000000 -0.000000 0.000000 0.000000 -0.000000 0.000000 0.000000 0.000000 0.000000 0.000000 0.000000 0.000000 0.000000 -0.000000 0.000000 0.000000 -0.000000 0.000000 0.000000 -0.000000 0.000000 0.000000 -0.000000 0.000000 0.000000 0.000000 0.000000 0.000000 0.000000 0.000000 0.000000 -0.016094 0.156449 -60.530193 -0.000000 0.000000 0.000000 -8.369595 4.013600 5.753604 0.000000 0.000000 0.000000 -0.016094 0.156449 -60.530193 -0.000000 0.000000 0.000000 3.503983 -4.095101 -0.285929 0.000000 0.000000 0.000000
30.696639 70.643211 289.116949 0.191119 -0.079699 60.435706 -0.024976 0.205559 -60.435528 -0.000000 0.000000 0.000000 -0.000000 0.000000 0.000000 0.000000 0.000000 0.000000 -0.000000 0.000000 0.000000 -0.000000 0.000000 0.000000 -0.000000 0.000000 0.000000 -0.000000 0.000000 0.000000 0.000000 0.000000 0.000000 0.000000 0.000000 0.000000 -0.000000 0.000000 0.000000 -0.000000 0.000000 0.000000 -0.000000 0.000000 0.000000 -0.000000 0.000000 0.000000 0.000000 0.000000 0.000000 0.000000 0.000000 0.000000 -0.024976 0.205559 -60.435528 -0.000000 0.000000 0.000000 -9.968067 4.839016 7.352763 0.000000 0.000000 0.000000 -0.024976 0.205559 -60.435528 -0.000000 0.000000 0.000000 2.539829 -4.616052 0.284986 0.000000 0.000000 0.000000
30.712149 70.684131 289.138434 0.221113 -0.086485 60.467216 -0.033743 0.235015 -60.466980 -0.000000 0.000000 0.000000 -0.000000 0.000000 0.000000 0.000000 0.000000 0.000000 -0.000000 0.000000 0.000000 -0.000000 0.000000 0.000000 -0.000000 0.000000 0.000000 -0.000000 0.000000 0.000000 0.000000 0.000000 0.000000 0.000000 0.000000 0.000000 -0.000000 0.000000 0.000000 -0.000000 0.000000 0.000000 -0.000000 0.000000 0.000000 0.434909 0.993340 -0.001067 0.000000 0.000000 0.000000 0.000000 0.000000 0.000000 -0.033743 0.235015 -60.466980 -0.000000 0.000000 0.000000 -10.168672 5.207793 8.271863 0.000000 0.000000 0.000000 -0.033743 0.235015 -60.466980 -0.000000 0.000000 0.000000 -0.349380 -4.108209 1.331550 0.000000 0.000000 0.000000
30.716081 70.684931 289.152766 0.233995 -0.083276 60.624535 -0.042214 0.244758 -60.624275 -0.000000 0.000000 0.000000 -0.000000 0.000000 0.000000 0.000000 0.000000 0.000000 -0.000000 0.000000 0.000000 -0.000000 0.000000 0.000000 -0.000000 0.000000 0.000000 -0.000000 0.000000 0.000000 0.000000 0.000000 0.000000 0.000000 0.000000 0.000000 -0.000000 0.000000 0.000000 -0.000000 0.000000 0.000000 -0.000000 0.000000 0.000000 0.664654 1.278840 0.033256 0.000000 0.000000 0.000000 0.000000 0.000000 0.000000 -0.042214 0.244758 -60.624275 -0.000000 0.000000 0.000000 -8.975580 5.187637 8.565717 0.000000 0.000000 0.000000 -0.042214 0.244758 -60.624275 -0.000000 0.000000 0.000000 -5.294708 -2.601694 2.979794 0.000000 0.000000 0.000000
30.719044 70.602312 289.084463 0.231710 0.002876 61.096748 -0.114511 0.201457 -61.096553 -0.000000 0.000000 0.000000 -0.000000 0.000000 0.000000 0.000000 0.000000 0.000000 -0.000000 0.000000 0.000000 -0.000000 0.000000 0.000000 -0.000000 0.000000 0.000000 -0.000000 0.000000 0.000000 0.000000 0.000000 0.000000 0.000000 0.000000 0.000000 -0.000000 0.000000 0.000000 -0.000000 0.000000 0.000000 0.032706 0.844995 0.007549 1.069749 1.028461 0.095795 0.000000 0.000000 0.000000 0.000000 0.000000 0.000000 -0.114511 0.201457 -61.096553 -0.000000 0.000000 0.000000 -4.539209 3.852842 6.624076 0.000000 0.000000 0.000000 -0.114511 0.201457 -61.096553 -0.000000 0.000000 0.000000 -14.136300 -0.959424 6.305045 0.000000 0.000000 0.000000
30.700428 70.509731 289.088093 0.209137 0.024365 61.531720 -0.121109 0.172234 -61.531583 -0.000000 0.000000 0.000000 -0.000000 0.000000 0.000000 0.000000 0.000000 0.000000 -0.000000 0.000000 0.000000 -0.000000 0.000000 0.000000 -0.000000 0.000000 0.000000 -0.000000 0.000000 0.000000 0.000000 0.000000 0.000000 0.000000 0.000000 0.000000 -0.000000 0.000000 0.000000 -0.000000 0.000000 0.000000 -0.000000 0.000000 0.000000 0.874998 1.883590 0.008582 0.000000 0.000000 0.000000 0.000000 0.000000 0.000000 -0.121109 0.172234 -61.531583 -0.000000 0.000000 0.000000 -0.437509 2.813441 5.617709 0.000000 0.000000 0.000000 -0.121109 0.172234 -61.531583 -0.000000 0.000000 0.000000 -24.297336 1.869005 10.181536 0.000000 0.000000 0.000000
